# xmcd CD database file
#
# Track frame offsets:
#	150
#	8323
#	14623
#	22142
#	27841
#	36016
#	45340
#	52166
#	64493
#	70118
#	78893
#	86016
#	92242
#	97643
#	106494
#	113006
#	117582
#	133095
#	140371
#	147984
#	160734
#	172714
#	177514
#	180662
#	184713
#	196789
#	201814
#	204188
#	209813
#	213414
#	221290
#	225716
#	233741
#	236141
#	240717
#	247768
#	251518
#	255042
#	262918
#
# Disc length: 3532 seconds
#
# Revision: 0
# Processed by: cddbd v1.5.2PL0 Copyright (c) Steve Scherf et al.
# Submitted via: CDex 1.70beta2
#
DISCID=100dca27
DTITLE=Terry Scott Taylor - Neverhood Songs
DYEAR=1996
DGENRE=Blues
TTITLE0=Klaymen Shuffle
TTITLE1=Olley Oxen Free
TTITLE2=Everybody Way Oh !
TTITLE3=Rock 'n' Roll Dixie
TTITLE4=Cough Drops
TTITLE5=Skat Radio
TTITLE6=Lowdee Huh
TTITLE7=Klaymen's Theme
TTITLE8=Operator Plays a Little Ping-pong
TTITLE9=Jose Feliciano
TTITLE10=Homina Homina
TTITLE11=Potatoes, Tomatoes, Gravy, and Peas
TTITLE12=Triangle Square
TTITLE13=Dum Da Dum Doi Doi
TTITLE14=Southern Front Porch Whistler
TTITLE15=Confused and Upset
TTITLE16=The Neverhood Theme
TTITLE17=The Weasel Chase
TTITLE18=Pulling of the Pin
TTITLE19=The Battle of Robot Bil
TTITLE20=Klogg's Castle
TTITLE21=Time to Goof Off
TTITLE22=Klaymen Takes the 'A' Train
TTITLE23=Low Down Doe
TTITLE24=Gargling Drummer
TTITLE25=Resolution #8
TTITLE26=An Elf Sings His ABC's
TTITLE27=Thumb Nail Sketch
TTITLE28=I'm Thirsty, I Need WahWah
TTITLE29=Sound Effects Record #32
TTITLE30=The Laughing, Crying, Screaming Masses
TTITLE31=Sound Effects Record #33
TTITLE32=B3, B.C.
TTITLE33=Coffee and Other Just Desserts
TTITLE34=Spring Has Sprung
TTITLE35=Chiming In
TTITLE36=Scary Robot Man
TTITLE37=Playing Pool in Outer Space
TTITLE38=Down in the Mines
EXTD=YEAR: 1996
EXTT0=
EXTT1=
EXTT2=
EXTT3=
EXTT4=
EXTT5=
EXTT6=
EXTT7=
EXTT8=
EXTT9=
EXTT10=
EXTT11=
EXTT12=
EXTT13=
EXTT14=
EXTT15=
EXTT16=
EXTT17=
EXTT18=
EXTT19=
EXTT20=
EXTT21=
EXTT22=
EXTT23=
EXTT24=
EXTT25=
EXTT26=
EXTT27=
EXTT28=
EXTT29=
EXTT30=
EXTT31=
EXTT32=
EXTT33=
EXTT34=
EXTT35=
EXTT36=
EXTT37=
EXTT38=
PLAYORDER=
